<svg width="22" height="22" viewBox="0 0 22 22" fill="none" xmlns="http://www.w3.org/2000/svg">
<path d="M22 2.8781C22 1.28854 20.7115 0 19.1219 0H2.8781C1.28854 0 0 1.28854 0 2.8781V19.1218C0 20.7115 1.28854 22 2.8781 22H19.1218C20.7115 22 22 20.7115 22 19.1219V2.8781ZM4.93829 17.9645C4.46162 18.0924 4.02541 17.6562 4.15327 17.1795L4.94373 14.2332L7.88452 17.174L4.93829 17.9645ZM17.6386 7.24971L8.93508 15.9533L6.00777 13.026L14.7113 4.32253C15.1241 3.90973 15.7932 3.90973 16.206 4.32253L17.6386 5.75513C18.0512 6.16781 18.0512 6.83691 17.6386 7.24971Z" fill="#1687A7"/>
</svg>
