<svg width="28" height="28" viewBox="0 0 28 28" fill="none" xmlns="http://www.w3.org/2000/svg">
<g clip-path="url(#clip0_131_329)">
<path d="M24.227 0H3.77336C1.6896 0 0.000305176 1.68923 0.000305176 3.77306V24.2268C0.000305176 26.3106 1.68953 27.9999 3.77336 27.9999H13.861L13.8782 17.9942H11.2787C10.9409 17.9942 10.6667 17.7211 10.6654 17.3832L10.6529 14.158C10.6516 13.8184 10.9267 13.5423 11.2663 13.5423H13.8611V10.4259C13.8611 6.80938 16.0698 4.84014 19.296 4.84014H21.9433C22.2821 4.84014 22.5567 5.11474 22.5567 5.45352V8.17305C22.5567 8.51169 22.2823 8.78622 21.9437 8.78642L20.3191 8.78718C18.5645 8.78718 18.2248 9.6209 18.2248 10.8444V13.5424H22.0801C22.4474 13.5424 22.7324 13.8631 22.6891 14.228L22.3068 17.4532C22.2703 17.7618 22.0086 17.9944 21.6978 17.9944H18.242L18.2248 28H24.2271C26.3109 28 28.0001 26.3108 28.0001 24.227V3.77306C28 1.68923 26.3108 0 24.227 0Z" fill="white"/>
</g>
<defs>
<clipPath id="clip0_131_329">
<rect width="28" height="28" fill="white"/>
</clipPath>
</defs>
</svg>
