<svg width="28" height="26" viewBox="0 0 28 26" fill="none" xmlns="http://www.w3.org/2000/svg">
<g clip-path="url(#clip0_131_324)">
<path d="M26.8922 13.2432C26.8922 12.178 26.8038 11.4007 26.6126 10.5946H14.1766V15.4024H21.4762C21.3291 16.5972 20.5344 18.3966 18.7683 19.6057L18.7436 19.7667L22.6756 22.746L22.948 22.7726C25.4499 20.5126 26.8922 17.1874 26.8922 13.2432" fill="#4285F4"/>
<path d="M13.8326 26.3931C17.4088 26.3931 20.411 25.2414 22.604 23.255L18.4243 20.0881C17.3058 20.851 15.8046 21.3836 13.8326 21.3836C10.3299 21.3836 7.3571 19.1237 6.29737 16L6.14204 16.0129L2.05347 19.1078L2 19.2532C4.17811 23.4852 8.65212 26.3931 13.8326 26.3931Z" fill="#34A853"/>
<path d="M6.64142 15.5177C6.3618 14.7116 6.19997 13.8478 6.19997 12.9554C6.19997 12.0628 6.3618 11.1992 6.62671 10.3931L6.6193 10.2214L2.47949 7.07678L2.34405 7.1398C1.44634 8.89599 0.93124 10.8681 0.93124 12.9554C0.93124 15.0426 1.44634 17.0146 2.34405 18.7708L6.64142 15.5177" fill="#FBBC05"/>
<path d="M14.1766 5.00937C16.6638 5.00937 18.3415 6.06018 19.2981 6.93833L23.0363 3.36839C20.7405 1.28114 17.7528 0 14.1766 0C8.99616 0 4.52216 2.90773 2.34405 7.13978L6.62671 10.3931C7.70115 7.26938 10.674 5.00937 14.1766 5.00937" fill="#EB4335"/>
</g>
<defs>
<clipPath id="clip0_131_324">
<rect width="26.5821" height="26" fill="white" transform="translate(0.626865)"/>
</clipPath>
</defs>
</svg>
