<svg width="60" height="60" viewBox="0 0 60 60" fill="none" xmlns="http://www.w3.org/2000/svg">
<path d="M21.213 11.8868V9.30892C21.213 8.84312 21.592 8.46434 22.0575 8.46434H37.9422C38.408 8.46434 38.7868 8.84338 38.7868 9.30892V11.8868C38.7868 12.3526 38.4077 12.7314 37.9422 12.7314H22.0578C21.592 12.7317 21.213 12.3526 21.213 11.8868ZM34.8733 4.49668C34.6702 1.98383 32.5644 0 30 0C27.4356 0 25.3298 1.98383 25.1267 4.49668H34.8733ZM50.8678 14.6364V54.6656C50.8678 57.607 48.4747 60 45.5334 60H14.4666C11.5253 60 9.13223 57.607 9.13223 54.6656V14.6364C9.13223 11.6951 11.5253 9.30204 14.4666 9.30204H17.2456C17.2456 9.30442 17.2453 9.30681 17.2453 9.30892V11.8868C17.2453 14.5404 19.4042 16.6991 22.0575 16.6991H37.9422C40.5958 16.6991 42.7544 14.5404 42.7544 11.8868V9.30892C42.7544 9.30654 42.7542 9.30416 42.7542 9.30204H45.5331C48.4747 9.30204 50.8678 11.6951 50.8678 14.6364ZM23.3253 37.9438C22.3927 37.369 21.1704 37.6589 20.5956 38.5916L18.7197 41.6345L17.7513 40.8717C16.8911 40.1937 15.6432 40.3421 14.9655 41.2028C14.2875 42.0638 14.4359 43.311 15.2967 43.9889L18.0134 46.1285C18.3658 46.406 18.7988 46.5536 19.2408 46.5536C19.3561 46.5536 19.4722 46.5436 19.5875 46.5232C20.1443 46.4243 20.6329 46.0923 20.9297 45.6109L23.9731 40.6735C24.5482 39.7409 24.258 38.5188 23.3253 37.9438ZM23.3253 23.6602C22.3927 23.0852 21.1704 23.3756 20.5956 24.308L18.7197 27.3509L17.7513 26.5881C16.8911 25.9104 15.6432 26.0585 14.9655 26.9192C14.2875 27.7802 14.4359 29.0274 15.2967 29.7053L18.0134 31.845C18.3658 32.1224 18.7988 32.27 19.2408 32.27C19.3561 32.27 19.4722 32.26 19.5875 32.2396C20.1443 32.1407 20.6329 31.8087 20.9297 31.3273L23.9731 26.3902C24.5482 25.4573 24.258 24.2353 23.3253 23.6602ZM43.8712 44.57C43.8712 43.4742 42.9832 42.5862 41.8874 42.5862H28.9264C27.8308 42.5862 26.9425 43.4742 26.9425 44.57C26.9425 45.6659 27.8308 46.5539 28.9264 46.5539H41.8874C42.9832 46.5539 43.8712 45.6659 43.8712 44.57ZM43.8712 30.2865C43.8712 29.1906 42.9832 28.3026 41.8874 28.3026H28.9264C27.8308 28.3026 26.9425 29.1906 26.9425 30.2865C26.9425 31.3823 27.8308 32.2703 28.9264 32.2703H41.8874C42.9832 32.2703 43.8712 31.3823 43.8712 30.2865Z" fill="white"/>
</svg>
