<svg width="138" height="36" viewBox="0 0 138 36" fill="none" xmlns="http://www.w3.org/2000/svg">
<g clip-path="url(#clip0_21_261)">
<path d="M35.0914 32.5984C35.0367 32.5984 34.9858 32.6023 34.9311 32.6101L25.3243 33.8535C24.8317 33.9161 24.4876 33.3764 24.7535 32.9542C24.8981 32.7313 25.0389 32.5045 25.1796 32.2778C25.5511 31.6756 25.0545 30.8741 24.3664 30.8741C24.3194 30.8741 24.2726 30.878 24.2217 30.8859L11.6317 32.7782L10.1263 33.005L6.0209 33.6228C5.55562 33.6932 5.24282 34.0881 5.28192 34.5612C5.29756 34.7723 5.38358 34.9717 5.52043 35.1203C5.68073 35.2963 5.9036 35.394 6.14602 35.394C6.19294 35.394 6.23986 35.3901 6.29068 35.3823L21.2971 33.1262C21.8093 33.048 22.1612 33.6267 21.8601 34.049C21.7623 34.1819 21.6646 34.3188 21.5668 34.4517C21.2971 34.8192 21.3596 35.4331 21.6724 35.7498C21.8327 35.914 22.036 36 22.2511 36C22.2745 36 22.3019 36.0001 22.3253 35.9961H22.3293H22.3332L35.2868 34.3461H35.2908H35.2947C35.5176 34.311 35.7131 34.1819 35.8421 33.9825C35.9829 33.7635 36.0337 33.4937 35.9711 33.2514C35.8695 32.8564 35.5254 32.5984 35.0914 32.5984Z" fill="#F6F5F5"/>
<path d="M29.5549 7.48868C30.5989 6.24923 30.4386 4.39983 29.1991 3.35587L26.0281 0.689289C24.7886 -0.354666 22.9392 -0.194358 21.8953 1.04509L20.6402 2.53478L28.2998 8.97837L29.5549 7.48868Z" fill="#F6F5F5"/>
<path d="M27.3262 10.1123L19.6666 3.66867L17.0704 6.75753L24.73 13.2011L27.3262 10.1123Z" fill="#F6F5F5"/>
<path d="M0.00353249 34.307C-0.0160172 34.5729 0.230309 34.7801 0.488366 34.7136L2.42379 34.2249L0.1482 32.309L0.00353249 34.307Z" fill="#F6F5F5"/>
<path d="M9.25445 31.5622L23.6314 14.4836L15.9717 8.03998L1.59487 25.1147C1.32899 25.4315 1.16868 25.8225 1.14131 26.233L0.801147 30.9562L3.64759 33.353L8.23395 32.1996C8.63281 32.0979 8.98861 31.875 9.25445 31.5622Z" fill="#F6F5F5"/>
</g>
<g clip-path="url(#clip1_21_261)">
<path d="M31.3548 33.0968L33.3598 32.8587L35.4193 32.5161L35.4828 17.6779L33.3598 17.2697V15.0242H35.4828H39.2389L48.0983 29.123L48.1799 29.1094V17.6779L45.6622 17.2697V15.0242H51.5005H53.6371V17.2697L51.5005 17.6779V34.8387H47.9486L38.8986 20.8352L38.817 20.8488V32.1987V33.0968V34.1719H37.1612L33.3598 34.5724L31.3548 33.0968ZM62.1562 35.1245C60.7136 35.1245 59.4799 34.807 58.4545 34.1719C57.4294 33.5368 56.64 32.6568 56.0867 31.5317C55.5332 30.3977 55.2565 29.0958 55.2565 27.6261V27.3403C55.2565 25.8796 55.5332 24.5867 56.0867 23.4617C56.64 22.3367 57.4294 21.4521 58.4545 20.808C59.4799 20.1638 60.7045 19.8418 62.129 19.8418C63.5625 19.8418 64.7918 20.1638 65.817 20.808C66.8422 21.4431 67.627 22.3231 68.1713 23.4481C68.7248 24.5732 69.0015 25.8704 69.0015 27.3403V27.6261C69.0015 29.0958 68.7248 30.3977 68.1713 31.5317C67.627 32.6568 66.8422 33.5368 65.817 34.1719C64.7918 34.807 63.5715 35.1245 62.1562 35.1245ZM62.1562 32.2803C62.8729 32.2803 63.4626 32.0852 63.9254 31.6951C64.3971 31.3049 64.7464 30.7606 64.9732 30.062C65.2 29.3543 65.3135 28.5423 65.3135 27.6261V27.3403C65.3135 26.433 65.2 25.63 64.9732 24.9315C64.7464 24.2329 64.3971 23.6885 63.9254 23.2984C63.4536 22.8992 62.8548 22.6996 62.129 22.6996C61.4032 22.6996 60.8044 22.8992 60.3326 23.2984C59.8699 23.6885 59.5251 24.2329 59.2983 24.9315C59.0715 25.63 58.9581 26.433 58.9581 27.3403V27.6261C58.9581 28.5514 59.0715 29.3635 59.2983 30.062C59.5251 30.7606 59.8745 31.3049 60.3462 31.6951C60.818 32.0852 61.4213 32.2803 62.1562 32.2803ZM76.4047 35.1109C75.0983 35.1109 74.0822 34.748 73.3563 34.0222C72.6396 33.2874 72.2812 32.1261 72.2812 30.5384V22.7404H70.199V20.1139H72.2812V16.5212H75.9692V20.1139H78.7863V22.7404H75.9692V30.5384C75.9692 31.1371 76.0962 31.5681 76.3503 31.8312C76.6042 32.0942 76.9445 32.2258 77.3709 32.2258C77.6068 32.2258 77.8654 32.2077 78.1467 32.1714C78.4279 32.1351 78.6638 32.0988 78.8542 32.0625L79.2081 34.689C78.7999 34.807 78.3462 34.9068 77.8473 34.9884C77.3573 35.0701 76.8764 35.1109 76.4047 35.1109ZM87.3871 35.1245C85.9899 35.1245 84.7696 34.8161 83.7263 34.1991C82.692 33.5732 81.889 32.7158 81.3175 31.6271C80.7459 30.5293 80.4602 29.2772 80.4602 27.871V27.313C80.4602 25.8704 80.7323 24.5867 81.2767 23.4617C81.83 22.3276 82.6013 21.4431 83.5902 20.808C84.5791 20.1638 85.7222 19.8418 87.0196 19.8418C88.3532 19.8418 89.4738 20.1094 90.381 20.6447C91.2883 21.1709 91.9732 21.9284 92.436 22.9174C92.8987 23.9063 93.13 25.0948 93.13 26.4829V28.5378H84.2978L84.2706 28.6194C84.307 29.3271 84.4657 29.9577 84.747 30.5111C85.0282 31.0555 85.4228 31.4864 85.9309 31.8039C86.439 32.1215 87.0559 32.2803 87.7817 32.2803C88.5529 32.2803 89.256 32.1804 89.891 31.9809C90.5352 31.7813 91.1477 31.4864 91.7283 31.0962L92.7897 33.3962C92.2 33.8861 91.4516 34.299 90.5444 34.6346C89.6371 34.9612 88.5846 35.1245 87.3871 35.1245ZM84.3387 26.0201H89.6461V25.6664C89.6461 25.0494 89.5554 24.5142 89.3739 24.0605C89.1925 23.5978 88.9112 23.2394 88.5302 22.9854C88.1583 22.7314 87.6728 22.6043 87.0741 22.6043C86.5297 22.6043 86.0625 22.754 85.6723 23.0534C85.2822 23.3438 84.9738 23.743 84.747 24.251C84.5201 24.75 84.3704 25.3171 84.2978 25.9522L84.3387 26.0201ZM94.9671 34.8387V32.6068L97.1038 32.1987V17.6779L94.9671 17.2697V15.0242H97.1038H104.33C105.827 15.0242 107.111 15.2873 108.181 15.8135C109.261 16.3307 110.091 17.061 110.672 18.0046C111.252 18.939 111.543 20.0277 111.543 21.2707C111.543 22.5227 111.252 23.6159 110.672 24.5504C110.091 25.4758 109.261 26.1971 108.181 26.7142C107.111 27.2313 105.827 27.49 104.33 27.49H100.805V32.1987L102.942 32.6068V34.8387H94.9671ZM100.805 24.632H104.33C105.491 24.632 106.367 24.3191 106.957 23.6931C107.546 23.0671 107.841 22.2687 107.841 21.2979C107.841 20.3181 107.546 19.5061 106.957 18.8619C106.367 18.2087 105.491 17.8821 104.33 17.8821H100.805V24.632ZM117.721 35.1245C116.242 35.1245 115.077 34.739 114.224 33.9678C113.38 33.1875 112.958 32.1215 112.958 30.7697C112.958 29.8442 113.208 29.0323 113.707 28.3336C114.215 27.6261 114.959 27.0771 115.938 26.687C116.927 26.2878 118.13 26.0882 119.545 26.0882H121.641V24.9315C121.641 24.1875 121.418 23.5887 120.974 23.1351C120.538 22.6815 119.894 22.4547 119.041 22.4547C118.579 22.4547 118.161 22.5136 117.789 22.6316C117.426 22.7404 117.1 22.8992 116.809 23.1079L116.496 25.0812H113.802L113.775 21.3523C114.519 20.8987 115.335 20.5358 116.224 20.2636C117.122 19.9824 118.12 19.8418 119.218 19.8418C121.114 19.8418 122.607 20.2863 123.695 21.1754C124.793 22.0555 125.342 23.3211 125.342 24.9723V31.2459C125.342 31.4456 125.342 31.6406 125.342 31.8312C125.351 32.0217 125.369 32.2077 125.397 32.3891L126.907 32.6068V34.8387H122.212C122.112 34.5575 122.017 34.2717 121.926 33.9813C121.845 33.682 121.786 33.3826 121.749 33.0832C121.269 33.691 120.693 34.1855 120.021 34.5665C119.359 34.9385 118.592 35.1245 117.721 35.1245ZM118.633 32.3348C119.259 32.3348 119.844 32.1896 120.389 31.8993C120.942 31.6089 121.359 31.2414 121.641 30.7969V28.4017H119.531C118.579 28.4017 117.857 28.624 117.367 29.0685C116.886 29.504 116.646 30.0212 116.646 30.62C116.646 31.1643 116.819 31.5862 117.163 31.8856C117.508 32.1849 117.998 32.3348 118.633 32.3348ZM128.268 34.8387V32.6068L130.255 32.1987V16.2626L128.118 15.8543V13.6089H133.957V32.1987L135.944 32.6068V34.8387H128.268Z" fill="#F6F5F5"/>
</g>
<defs>
<clipPath id="clip0_21_261">
<rect width="36" height="36" fill="white"/>
</clipPath>
<clipPath id="clip1_21_261">
<rect width="104.516" height="23.2258" fill="white" transform="translate(32.5161 12.7742)"/>
</clipPath>
</defs>
</svg>
