<svg width="53" height="53" viewBox="0 0 53 53" fill="none" xmlns="http://www.w3.org/2000/svg">
<path d="M34.6905 9.56036C34.6905 9.51187 34.6955 9.46467 34.7035 9.41846H29.7216C29.7296 9.46467 29.7346 9.51187 29.7346 9.56036C29.7346 10.0166 29.3648 10.3862 28.9087 10.3862H23.9529V17.8346H30.5606C31.0167 17.8346 31.3865 18.2042 31.3865 18.6604V33.528H51.348V10.3863H35.5164C35.0603 10.3863 34.6905 10.0167 34.6905 9.56036ZM47.0801 30.2385H34.6905C34.2344 30.2385 33.8645 29.8689 33.8645 29.4127C33.8645 28.9565 34.2344 28.5868 34.6905 28.5868H47.0801C47.5362 28.5868 47.906 28.9565 47.906 29.4127C47.906 29.8689 47.5362 30.2385 47.0801 30.2385ZM47.0801 25.2682H34.6905C34.2344 25.2682 33.8645 24.8986 33.8645 24.4423C33.8645 23.9861 34.2344 23.6165 34.6905 23.6165H47.0801C47.5362 23.6165 47.906 23.9861 47.906 24.4423C47.906 24.8986 47.5362 25.2682 47.0801 25.2682ZM47.0801 20.298H34.6905C34.2344 20.298 33.8645 19.9284 33.8645 19.4722C33.8645 19.016 34.2344 18.6463 34.6905 18.6463H47.0801C47.5362 18.6463 47.906 19.016 47.906 19.4722C47.906 19.9283 47.5362 20.298 47.0801 20.298ZM47.906 14.5162C47.906 14.9724 47.5362 15.3421 47.0801 15.3421H28.0828C27.6267 15.3421 27.2569 14.9724 27.2569 14.5162C27.2569 14.06 27.6267 13.6904 28.0828 13.6904H47.0801C47.5362 13.6904 47.906 14.06 47.906 14.5162Z" fill="white"/>
<path d="M29.7347 24.4424H26.4308C25.9747 24.4424 25.6048 24.0727 25.6048 23.6165H20.6491C20.6491 24.0727 20.2792 24.4424 19.8231 24.4424H1.65192V47.5694H19.8231V39.3097C19.8231 38.8535 20.193 38.4839 20.6491 38.4839H29.7347V24.4424ZM5.78171 27.7464H25.6048C26.0609 27.7464 26.4308 28.116 26.4308 28.5723C26.4308 29.0285 26.0609 29.3981 25.6048 29.3981H5.78171C5.3256 29.3981 4.95575 29.0285 4.95575 28.5723C4.95575 28.116 5.3256 27.7464 5.78171 27.7464ZM15.6933 44.2656H5.78171C5.3256 44.2656 4.95575 43.896 4.95575 43.4397C4.95575 42.9835 5.3256 42.6139 5.78171 42.6139H15.6933C16.1494 42.6139 16.5193 42.9835 16.5193 43.4397C16.5193 43.8958 16.1494 44.2656 15.6933 44.2656ZM15.6933 39.3097H5.78171C5.3256 39.3097 4.95575 38.9401 4.95575 38.4839C4.95575 38.0277 5.3256 37.658 5.78171 37.658H15.6933C16.1494 37.658 16.5193 38.0277 16.5193 38.4839C16.5193 38.9401 16.1494 39.3097 15.6933 39.3097ZM25.6048 34.3539H5.78171C5.3256 34.3539 4.95575 33.9842 4.95575 33.528C4.95575 33.0718 5.3256 32.7022 5.78171 32.7022H25.6048C26.0609 32.7022 26.4308 33.0718 26.4308 33.528C26.4308 33.9842 26.0611 34.3539 25.6048 34.3539Z" fill="white"/>
<path d="M28.4375 40.1356H21.475V46.5178L28.4375 40.1356Z" fill="white"/>
<path d="M25.6048 23.6164C25.6048 23.1601 25.9747 22.7905 26.4308 22.7905H29.7347V19.4865H1.65192V22.7905H19.8231C20.2792 22.7905 20.6491 23.1601 20.6491 23.6164H25.6048Z" fill="white"/>
<path d="M35.5164 8.7345H51.3481V5.43066H23.953V8.73461H28.9088C29.3164 8.73461 29.6543 9.0302 29.7217 9.41856H34.7036C34.7709 9.03009 35.1088 8.7345 35.5164 8.7345Z" fill="white"/>
<path d="M52.1741 3.77887H23.1271C22.6709 3.77887 22.3011 4.1485 22.3011 4.60472V17.8347H0.825959C0.369847 17.8347 0 18.2043 0 18.6605V48.3952C0 48.8515 0.369847 49.2211 0.825959 49.2211H20.6491C20.8558 49.2211 21.0549 49.1437 21.2071 49.0041L31.1188 39.9184C31.2894 39.762 31.3866 39.5411 31.3866 39.3096V35.1798H52.174C52.6302 35.1798 53 34.8102 53 34.354V4.60472C53.0001 4.1485 52.6303 3.77887 52.1741 3.77887ZM28.4375 40.1356L21.4751 46.5178V40.1356H28.4375V40.1356ZM20.6491 38.4839C20.193 38.4839 19.8231 38.8535 19.8231 39.3097V47.5694H1.65192V24.4423H19.8231C20.2792 24.4423 20.6491 24.0727 20.6491 23.6165C20.6491 23.1603 20.2792 22.7906 19.8231 22.7906H1.65192V19.4866H29.7347V22.7906H26.4308C25.9747 22.7906 25.6048 23.1603 25.6048 23.6165C25.6048 24.0727 25.9747 24.4423 26.4308 24.4423H29.7347V38.4839H20.6491ZM51.3482 33.5281H31.3866V18.6605C31.3866 18.2043 31.0168 17.8347 30.5607 17.8347H23.953V10.3863H28.9088C29.3649 10.3863 29.7347 10.0167 29.7347 9.56047C29.7347 9.51198 29.7297 9.46479 29.7217 9.41857C29.6543 9.03011 29.3165 8.73462 28.9088 8.73462H23.953V5.43068H51.3482V8.73462H35.5164C35.1087 8.73462 34.7709 9.03022 34.7035 9.41857C34.6955 9.46479 34.6905 9.51198 34.6905 9.56047C34.6905 10.0167 35.0603 10.3863 35.5164 10.3863H51.3481L51.3482 33.5281Z" fill="#3A405A"/>
<path d="M5.78171 29.3982H25.6048C26.0609 29.3982 26.4308 29.0286 26.4308 28.5724C26.4308 28.1162 26.0609 27.7465 25.6048 27.7465H5.78171C5.3256 27.7465 4.95575 28.1162 4.95575 28.5724C4.95575 29.0285 5.3256 29.3982 5.78171 29.3982Z" fill="#3A405A"/>
<path d="M26.4308 33.528C26.4308 33.0718 26.0609 32.7021 25.6048 32.7021H5.78171C5.3256 32.7021 4.95575 33.0718 4.95575 33.528C4.95575 33.9842 5.3256 34.3538 5.78171 34.3538H25.6048C26.061 34.3538 26.4308 33.9842 26.4308 33.528Z" fill="#3A405A"/>
<path d="M15.6933 37.6579H5.78171C5.3256 37.6579 4.95575 38.0275 4.95575 38.4837C4.95575 38.94 5.3256 39.3096 5.78171 39.3096H15.6933C16.1494 39.3096 16.5193 38.94 16.5193 38.4837C16.5193 38.0275 16.1494 37.6579 15.6933 37.6579Z" fill="#3A405A"/>
<path d="M15.6933 42.6138H5.78171C5.3256 42.6138 4.95575 42.9834 4.95575 43.4396C4.95575 43.8958 5.3256 44.2655 5.78171 44.2655H15.6933C16.1494 44.2655 16.5193 43.8958 16.5193 43.4396C16.5193 42.9834 16.1494 42.6138 15.6933 42.6138Z" fill="#3A405A"/>
<path d="M27.2568 14.5162C27.2568 14.9724 27.6267 15.3421 28.0828 15.3421H47.0801C47.5362 15.3421 47.906 14.9724 47.906 14.5162C47.906 14.06 47.5362 13.6904 47.0801 13.6904H28.0828C27.6267 13.6904 27.2568 14.06 27.2568 14.5162Z" fill="#3A405A"/>
<path d="M47.0801 18.6462H34.6905C34.2343 18.6462 33.8645 19.0159 33.8645 19.4721C33.8645 19.9283 34.2343 20.2979 34.6905 20.2979H47.0801C47.5362 20.2979 47.906 19.9283 47.906 19.4721C47.906 19.0159 47.5362 18.6462 47.0801 18.6462Z" fill="#3A405A"/>
<path d="M47.0801 23.6164H34.6905C34.2343 23.6164 33.8645 23.986 33.8645 24.4422C33.8645 24.8985 34.2343 25.2681 34.6905 25.2681H47.0801C47.5362 25.2681 47.906 24.8985 47.906 24.4422C47.906 23.9861 47.5362 23.6164 47.0801 23.6164Z" fill="#3A405A"/>
<path d="M47.0801 28.5867H34.6905C34.2343 28.5867 33.8645 28.9564 33.8645 29.4126C33.8645 29.8688 34.2343 30.2384 34.6905 30.2384H47.0801C47.5362 30.2384 47.906 29.8688 47.906 29.4126C47.906 28.9565 47.5362 28.5867 47.0801 28.5867Z" fill="#3A405A"/>
</svg>
