<svg width="31" height="30" viewBox="0 0 31 30" fill="none" xmlns="http://www.w3.org/2000/svg">
<path d="M4.09477 11.0378C1.83656 11.0378 0 12.8152 0 15C0 17.1853 1.83656 18.9621 4.09477 18.9621C6.35162 18.9621 8.189 17.1854 8.189 15C8.189 12.8152 6.35162 11.0378 4.09477 11.0378Z" fill="#3A405A"/>
<path d="M15.7008 11.0378C13.4429 11.0378 11.6061 12.8152 11.6061 15C11.6061 17.1853 13.4429 18.9621 15.7008 18.9621C17.9586 18.9621 19.7957 17.1854 19.7957 15C19.7957 12.8152 17.9586 11.0378 15.7008 11.0378Z" fill="#3A405A"/>
<path d="M26.906 11.0378C24.6486 11.0378 22.8115 12.8152 22.8115 15C22.8115 17.1853 24.6486 18.9621 26.906 18.9621C29.1628 18.9621 31 17.1854 31 15C31 12.8152 29.1628 11.0378 26.906 11.0378Z" fill="#3A405A"/>
</svg>
