<svg width="20" height="20" viewBox="0 0 20 20" fill="none" xmlns="http://www.w3.org/2000/svg">
<g clip-path="url(#clip0_22_282)">
<path d="M18.7223 7.88051H17.9669C17.7774 7.16625 17.4946 6.49009 17.1319 5.86583L17.6666 5.33114C18.1656 4.8322 18.1656 4.02326 17.6666 3.52432L16.476 2.33367C15.977 1.83472 15.1681 1.83472 14.6691 2.33367L14.1344 2.86836C13.5102 2.5057 12.834 2.22292 12.1198 2.03335V1.2777C12.1198 0.57204 11.5477 0 10.8421 0H9.15826C8.4526 0 7.88056 0.57204 7.88056 1.2777V2.03335C7.16637 2.22284 6.49013 2.5057 5.86596 2.86828L5.33119 2.33359C4.83224 1.83465 4.02331 1.83465 3.52436 2.33367L2.33379 3.52432C1.83484 4.02326 1.83484 4.8322 2.33379 5.33114L2.8684 5.86576C2.50574 6.49001 2.22289 7.16625 2.0334 7.88051H1.27774C0.572163 7.88051 0.00012207 8.45256 0.00012207 9.15821V10.8419C0.00012207 11.5476 0.572163 12.1196 1.27774 12.1196H2.0334C2.22296 12.8339 2.50582 13.5101 2.86848 14.1344L2.33379 14.6691C1.83484 15.168 1.83484 15.977 2.33379 16.4759L3.52444 17.6666C4.02338 18.1655 4.83232 18.1655 5.33127 17.6666L5.86603 17.1318C6.49021 17.4945 7.16644 17.7773 7.88064 17.9668V18.7224C7.88064 19.428 8.45268 20.0001 9.15833 20.0001H10.8421C11.5478 20.0001 12.1198 19.428 12.1198 18.7224V17.9668C12.8341 17.7772 13.5103 17.4944 14.1345 17.1317L14.6693 17.6666C15.1682 18.1655 15.9772 18.1655 16.4761 17.6666L17.6668 16.4759C17.9065 16.2363 18.041 15.9113 18.041 15.5725C18.041 15.2336 17.9064 14.9086 17.6668 14.669L17.132 14.1342C17.4947 13.5101 17.7774 12.8338 17.967 12.1196H18.7223C19.428 12.1196 20 11.5475 20 10.8419V9.15814C20 8.45256 19.4279 7.88051 18.7223 7.88051ZM10.0001 14.573C7.47849 14.573 5.427 12.5216 5.427 10C5.427 7.47837 7.47849 5.42688 10.0001 5.42688C12.5217 5.42688 14.5732 7.47837 14.5732 10C14.5732 12.5216 12.5217 14.573 10.0001 14.573Z" fill="#F6F5F5"/>
<path d="M10.0001 7.71352C8.73933 7.71352 7.71362 8.73923 7.71362 10C7.71362 11.2607 8.73933 12.2864 10.0001 12.2864C11.2609 12.2864 12.2866 11.2607 12.2866 10C12.2866 8.73923 11.2609 7.71352 10.0001 7.71352Z" fill="#F6F5F5"/>
</g>
<defs>
<clipPath id="clip0_22_282">
<rect width="20" height="20" fill="white"/>
</clipPath>
</defs>
</svg>
