<svg width="29" height="25" viewBox="0 0 29 25" fill="none" xmlns="http://www.w3.org/2000/svg">
<path d="M4.07813 6.25V23.4375C4.07813 24.3 4.89015 25 5.89066 25H23.1093C24.1098 25 24.9219 24.3 24.9219 23.4375V6.25H4.07813Z" fill="#C33C54"/>
<path d="M10.4219 0H18.5781C19.5786 0 20.3907 0.700019 20.3907 1.56252V3.12504H18.5781V2.34378C18.5781 1.91258 18.173 1.56252 17.6719 1.56252H11.3281C10.827 1.56252 10.4219 1.91249 10.4219 2.34378V3.12504H8.60934V1.56252C8.60934 0.700019 9.42136 0 10.4219 0Z" fill="#C33C54"/>
<path d="M7.70308 21.4843C7.70308 22.1319 8.31212 22.6561 9.06242 22.6561C9.81283 22.6561 10.4218 22.1319 10.4218 21.4843V10.132H7.70308V21.4843ZM18.5781 10.132V21.4844C18.5781 22.1313 19.1872 22.6562 19.9375 22.6562C20.6879 22.6562 21.2968 22.1312 21.2968 21.4844V10.132H18.5781ZM13.1406 21.4843C13.1406 22.1312 13.7496 22.6561 14.4999 22.6561C15.2503 22.6561 15.8592 22.1311 15.8592 21.4843V10.132H13.1404L13.1406 21.4843Z" fill="#F6F5F5"/>
<path d="M4.07813 7.03127H24.9219V8.59379H4.07813V7.03127Z" fill="#F6F5F5"/>
<path d="M4.07813 3.12495H24.9219C25.9224 3.12495 26.7344 3.82497 26.7344 4.68748V7.03126H2.26561V4.68748C2.26561 3.82497 3.07763 3.12495 4.07813 3.12495Z" fill="#C33C54"/>
</svg>
