<svg width="21" height="21" viewBox="0 0 21 21" fill="none" xmlns="http://www.w3.org/2000/svg">
<circle cx="10.5" cy="10.5" r="10.5" fill="#F6F5F5"/>
<path d="M10.915 12.9443V6.04688H12.959V12.9443C12.959 13.6097 12.8132 14.1816 12.5215 14.6602C12.2298 15.1341 11.8311 15.4987 11.3252 15.7539C10.8239 16.0091 10.2588 16.1367 9.62988 16.1367C8.97819 16.1367 8.40169 16.0273 7.90039 15.8086C7.39909 15.5898 7.00488 15.2549 6.71777 14.8037C6.43066 14.348 6.28711 13.7715 6.28711 13.0742H8.34473C8.34473 13.4388 8.39486 13.7282 8.49512 13.9424C8.59993 14.1566 8.74805 14.3092 8.93945 14.4004C9.13086 14.4915 9.361 14.5371 9.62988 14.5371C9.88965 14.5371 10.1152 14.4756 10.3066 14.3525C10.498 14.2295 10.6462 14.0495 10.751 13.8125C10.8604 13.5755 10.915 13.2861 10.915 12.9443Z" fill="#3A405A"/>
</svg>
