<svg width="49" height="49" viewBox="0 0 49 49" fill="none" xmlns="http://www.w3.org/2000/svg">
<g clip-path="url(#clip0_128_209)">
<path d="M7.1011 16.8277C7.66249 16.8277 8.14781 16.4077 8.21576 15.8365L9.13499 8.11246C9.17872 7.74486 9.03871 7.37927 8.7604 7.13494C8.4821 6.89071 8.10129 6.79902 7.74269 6.89013L0.84794 8.63873C0.246157 8.79137 -0.117898 9.40282 0.0347489 10.0044C0.187396 10.6061 0.798461 10.97 1.40044 10.8176L4.84193 9.94479C2.42666 13.1991 0.87244 16.9823 0.300038 21.0583C-0.418502 26.1734 0.521304 31.4857 2.94633 36.0169C3.14884 36.3953 3.53711 36.6106 3.9383 36.6106C4.11726 36.6106 4.29881 36.5678 4.46763 36.4774C5.01486 36.1845 5.2211 35.5033 4.92825 34.956C0.931393 27.4879 1.64419 18.3304 6.46113 11.5579L5.98357 15.5707C5.91017 16.187 6.3504 16.7462 6.96683 16.8196C7.012 16.8251 7.05669 16.8277 7.1011 16.8277Z" fill="white"/>
<path d="M48.9653 38.9957C48.8126 38.394 48.2011 38.0301 47.5996 38.1826L44.1706 39.052C46.6013 35.7896 48.1645 31.9933 48.7392 27.9023C49.4578 22.7872 48.518 17.4749 46.0929 12.9438C45.8001 12.3965 45.1189 12.1903 44.5715 12.4832C44.0243 12.776 43.8181 13.4571 44.1109 14.0045C48.1183 21.4922 47.3916 30.6781 42.5366 37.4593L43.0162 33.4291C43.0896 32.8127 42.6493 32.2535 42.0329 32.1801C41.4168 32.1072 40.8574 32.547 40.7841 33.1635L39.8649 40.8875C39.8211 41.2551 39.9611 41.6207 40.2394 41.865C40.4469 42.0471 40.7112 42.1443 40.981 42.1443C41.0731 42.1443 41.1659 42.1329 41.2573 42.1097L48.152 40.3612C48.7538 40.2088 49.1178 39.5973 48.9653 38.9957Z" fill="white"/>
<path d="M12.3101 25.0427C12.473 25.3162 12.7442 25.5079 13.0564 25.57C13.1292 25.5845 13.2027 25.5915 13.276 25.5915C13.5162 25.5915 13.7522 25.5144 13.9479 25.3686L18.8253 21.7319C19.323 21.3609 19.4255 20.6568 19.0545 20.159C18.6834 19.6614 17.9794 19.5588 17.4816 19.9298L14.7156 21.9922C15.4173 19.1915 17.2934 16.7973 19.9539 15.4468C20.5074 15.1658 20.7283 14.4893 20.4473 13.9359C20.1662 13.3824 19.4896 13.1614 18.9364 13.4425C15.7767 15.0466 13.5231 17.8556 12.6118 21.1548L11.2518 18.8707C10.9343 18.3373 10.2446 18.1625 9.71111 18.4799C9.17766 18.7974 9.00281 19.4873 9.32035 20.0206L12.3101 25.0427Z" fill="white"/>
<path d="M39.7058 28.8756L36.7156 23.8535C36.5527 23.5799 36.2815 23.3882 35.9693 23.3261C35.6572 23.264 35.3333 23.3371 35.078 23.5274L30.2006 27.1641C29.703 27.5352 29.6005 28.2392 29.9714 28.737C30.3425 29.2347 31.0465 29.3372 31.5443 28.9662L34.3563 26.8696C33.6706 29.7084 31.7818 32.1374 29.0915 33.5008C28.5379 33.7814 28.3164 34.4578 28.5971 35.0114C28.7952 35.4024 29.1905 35.6274 29.6006 35.6274C29.7715 35.6274 29.9449 35.5883 30.1078 35.5058C33.2733 33.9016 35.5302 31.0898 36.4413 27.7863L37.7745 30.0253C37.9848 30.3784 38.358 30.5744 38.7413 30.5744C38.9368 30.5744 39.135 30.5233 39.3151 30.416C39.8484 30.0986 40.0233 29.4088 39.7058 28.8756Z" fill="white"/>
<path d="M18.5541 39.2737C18.7644 39.6268 19.1376 39.8228 19.5209 39.8228C19.7164 39.8228 19.9146 39.7717 20.0947 39.6644L25.1169 36.6743C25.3904 36.5114 25.5821 36.2402 25.6442 35.928C25.7063 35.6157 25.6332 35.2918 25.4429 35.0367L21.8062 30.1593C21.4351 29.6616 20.731 29.5588 20.2333 29.9301C19.7357 30.3011 19.6332 31.0052 20.0041 31.503L22.0843 34.2929C19.2572 33.5971 16.8428 31.7066 15.488 29.0194C15.2084 28.4651 14.5327 28.2423 13.9783 28.5219C13.424 28.8014 13.2012 29.4772 13.4807 30.0316C15.0823 33.208 17.8964 35.4726 21.2061 36.3867L18.9447 37.733C18.4115 38.0505 18.2365 38.7404 18.5541 39.2737Z" fill="white"/>
<path d="M34.9711 44.0849C27.372 48.1399 18.3702 47.4448 11.5766 42.541L15.5708 43.0164C16.1871 43.0894 16.7464 42.6495 16.8198 42.0331C16.8931 41.4168 16.4529 40.8576 15.8364 40.7843L8.11238 39.8651C7.74527 39.8213 7.3792 39.9613 7.13487 40.2396C6.89064 40.518 6.79905 40.8985 6.89006 41.2574L8.63856 48.152C8.76766 48.6611 9.22503 48.9999 9.72719 48.9999C9.81858 48.9999 9.91161 48.9887 10.0042 48.9652C10.606 48.8126 10.9701 48.2011 10.8174 47.5995L9.93563 44.1222C13.1968 46.5551 16.9925 48.1209 21.083 48.698C22.2087 48.8568 23.3439 48.9352 24.4784 48.9352C28.4932 48.9352 32.4981 47.9523 36.0292 46.0681C36.5769 45.7759 36.7839 45.095 36.4918 44.5473C36.1996 43.9997 35.5187 43.7928 34.9711 44.0849Z" fill="white"/>
<path d="M14.0196 4.90209C21.5201 0.875853 30.7262 1.60291 37.5102 6.46933L33.4291 5.98363C32.8126 5.90966 32.2536 6.35046 32.1802 6.96689C32.1068 7.58322 32.547 8.14241 33.1635 8.21572L40.8875 9.13495C40.9319 9.14022 40.9763 9.1428 41.0205 9.1428C41.3416 9.1428 41.6503 9.00489 41.8649 8.76037C42.1092 8.48206 42.2008 8.10155 42.1098 7.74266L40.3613 0.847907C40.2087 0.246125 39.5971 -0.117739 38.9957 0.0347161C38.3939 0.187363 38.0298 0.798811 38.1825 1.4004L39.0429 4.79356C35.7872 2.3805 32.0034 0.828766 27.927 0.258758C22.8056 -0.457677 17.4893 0.488254 12.9565 2.92161C12.4096 3.21522 12.2043 3.89654 12.4978 4.44339C12.7913 4.99014 13.4725 5.19571 14.0196 4.90209Z" fill="white"/>
<path d="M33.5419 19.8816C33.7406 20.2708 34.1349 20.495 34.5439 20.495C34.7158 20.495 34.8904 20.4554 35.0539 20.3719C35.6068 20.0898 35.8262 19.4129 35.5442 18.8599C33.9374 15.711 31.1309 13.4651 27.8379 12.5568L30.0996 11.2102C30.633 10.8927 30.8079 10.2028 30.4903 9.66949C30.1728 9.13614 29.483 8.96119 28.9496 9.27874L23.9275 12.2689C23.6539 12.4318 23.4622 12.703 23.4001 13.0152C23.338 13.3274 23.4111 13.6513 23.6014 13.9065L27.2381 18.7839C27.4587 19.0798 27.7971 19.2361 28.1399 19.2361C28.3736 19.2361 28.6092 19.1635 28.8109 19.0131C29.3086 18.6421 29.4111 17.938 29.0401 17.4402L26.9602 14.6508C29.7736 15.3418 32.1823 17.217 33.5419 19.8816Z" fill="white"/>
</g>
<defs>
<clipPath id="clip0_128_209">
<rect width="49" height="49" fill="white"/>
</clipPath>
</defs>
</svg>
